<svg width="240" height="320" viewBox="0 0 240 320" fill="none" xmlns="http://www.w3.org/2000/svg">
  <image x="1" y="31" width="239" href="img/portfolio/mobile/blanchard-screen.webp" />
  <rect x="1" y="1" width="238" height="318" rx="10" ry="10" stroke="#000" stroke-width="2" fill="none" />   
    <g>
    <path d="M 1 10 A 10 10 0 0 1 10 1 H 230 A 10 10 0 0 1 239 10 V 30 H 1 Z" stroke="#000" stroke-width="2" fill="#ccc" />
    <path d="M 8 16 15 8 22 16 H 20 V 22 H 10 V 16 Z" stroke="#000" stroke-width="2" />     
    <g>
      <rect x="50" y="8" width="140" height="14" rx="7" ry="7" stroke="#000" stroke-width="2" fill="#eee" />
      <line x1="93" y1="11" x2="93" y2="19" stroke="#666" />
      <text x="58" y="18" style="font-size: 10px;" fill="#666">https://</text>
    </g>
    <circle cx="220" cy="10" r="2" fill="#000" />
    <circle cx="220" cy="16" r="2" fill="#000" />
    <circle cx="220" cy="22" r="2" fill="#000" />
  </g>
</svg>